<?xml version="1.0"?>
<svg xmlns:rdf="http://www.w3.org/1999/02/22-rdf-syntax-ns#" xmlns="http://www.w3.org/2000/svg" xmlns:cc="http://creativecommons.org/ns#" xmlns:dc="http://purl.org/dc/elements/1.1/" xmlns:svg="http://www.w3.org/2000/svg" id="svg2" viewBox="0 0 128 128" version="1.0">
  <g id="layer2" stroke-linejoin="round" stroke="#000">
    <path id="path3297" stroke-width="4" fill="#f00" d="m106.71 28.014c-4.89 0-8.792 3.967-8.792 8.858v10.402c2.067 1.021 4.412 1.61 6.842 1.61 8.87 0 16.04-7.573 16.04-16.911 0-1.362-0.18-2.69-0.47-3.959h-13.62z"/>
    <path id="path2278" stroke-width="6" fill="#ffff0e" d="m80 11.237c-13.043 0-23.622 10.888-23.622 24.293 0 7.731 3.51 14.61 8.993 19.058-3.244-0.338-6.563-0.537-9.932-0.537-4.863 0-9.605 0.451-14.227 1.141-3.885-8.127-12.934-15.106-20.41-17.24-10.119 11.161-12.098 22.857-12.002 33.283 0.1115 12.123 3.619 21.561 8.589 28.855 11.516 6.47 25.352 10.26 40.197 10.26 12.481 0 24.224-2.68 34.493-7.38 6.567-7.886 10.541-17.98 10.541-28.988 0-7.858-2.02-15.23-5.575-21.675 4.065-4.363 6.575-10.263 6.575-16.777 0-13.405-10.577-24.293-23.62-24.293z"/>
    <path id="path3307" stroke-width="2" transform="matrix(1.6225 0 0 1.5047 19.96 6.8349)" fill="#050505" d="m43.13 14.642a2.4668 2.5464 0 1 1 -4.934 0 2.4668 2.5464 0 1 1 4.934 0z"/>
  </g>
  <metadata>
    <rdf:RDF>
      <cc:Work>
        <dc:format>image/svg+xml</dc:format>
        <dc:type rdf:resource="http://purl.org/dc/dcmitype/StillImage"/>
        <cc:license rdf:resource="http://creativecommons.org/licenses/publicdomain/"/>
        <dc:publisher>
          <cc:Agent rdf:about="http://openclipart.org/">
            <dc:title>Openclipart</dc:title>
          </cc:Agent>
        </dc:publisher>
        <dc:title>Ducky icon</dc:title>
        <dc:date>2009-03-18T14:03:06</dc:date>
        <dc:description>baby, baby, bath, bath, clip art, clipart, contour, contour, duck, duck, icon, icon, image, media, png, public domain, rubber, rubber, svg, toy, toy, yellow, yellow, </dc:description>
        <dc:source>http://openclipart.org/detail/22535/ducky-icon-by-pitr</dc:source>
        <dc:creator>
          <cc:Agent>
            <dc:title>pitr</dc:title>
          </cc:Agent>
        </dc:creator>
        <dc:subject>
          <rdf:Bag>
            <rdf:li>baby</rdf:li>
            <rdf:li>bath</rdf:li>
            <rdf:li>clip art</rdf:li>
            <rdf:li>clipart</rdf:li>
            <rdf:li>contour</rdf:li>
            <rdf:li>duck</rdf:li>
            <rdf:li>icon</rdf:li>
            <rdf:li>image</rdf:li>
            <rdf:li>media</rdf:li>
            <rdf:li>png</rdf:li>
            <rdf:li>public domain</rdf:li>
            <rdf:li>rubber</rdf:li>
            <rdf:li>svg</rdf:li>
            <rdf:li>toy</rdf:li>
            <rdf:li>yellow</rdf:li>
          </rdf:Bag>
        </dc:subject>
      </cc:Work>
      <cc:License rdf:about="http://creativecommons.org/licenses/publicdomain/">
        <cc:permits rdf:resource="http://creativecommons.org/ns#Reproduction"/>
        <cc:permits rdf:resource="http://creativecommons.org/ns#Distribution"/>
        <cc:permits rdf:resource="http://creativecommons.org/ns#DerivativeWorks"/>
      </cc:License>
    </rdf:RDF>
  </metadata>
</svg>
